<?xml version="1.0" standalone="no"?>
<!DOCTYPE svg PUBLIC "-//W3C//DTD SVG 20010904//EN"
 "http://www.w3.org/TR/2001/REC-SVG-20010904/DTD/svg10.dtd">
<svg version="1.0" xmlns="http://www.w3.org/2000/svg"
 width="1524.000000pt" height="1080.000000pt" viewBox="0 0 1524.000000 1080.000000"
 preserveAspectRatio="xMidYMid meet">

<g transform="translate(0.000000,1080.000000) scale(0.100000,-0.100000)"
fill="#000000" stroke="none">
<path d="M5869 10741 c-53 -8 -77 -19 -269 -124 -78 -43 -147 -61 -303 -82
-168 -21 -267 -19 -572 15 -494 54 -624 57 -1085 23 -168 -12 -261 -14 -425
-7 -115 5 -307 7 -426 6 -231 -4 -286 2 -494 54 -109 28 -162 26 -225 -6 -80
-41 -183 -185 -241 -335 -29 -73 -32 -94 -40 -248 -11 -225 -14 -241 -72 -392
-87 -227 -98 -286 -72 -366 13 -37 16 -70 12 -116 -4 -59 -10 -73 -62 -150
-74 -109 -88 -150 -81 -233 24 -275 19 -317 -66 -523 -92 -223 -118 -306 -118
-377 0 -54 5 -72 25 -103 34 -49 58 -53 138 -24 98 36 168 82 266 174 99 92
220 262 341 478 249 442 481 759 650 889 100 77 292 182 502 274 360 159 529
170 813 52 160 -67 290 -85 440 -60 149 25 369 31 635 19 293 -14 474 -6 696
31 144 24 195 25 262 5 75 -23 85 -36 80 -111 -4 -60 -7 -66 -78 -160 -41 -53
-108 -134 -149 -178 -40 -45 -126 -144 -191 -221 -144 -171 -195 -220 -425
-412 -301 -250 -440 -357 -786 -601 -302 -213 -494 -373 -769 -637 -69 -66
-159 -148 -200 -182 -148 -120 -237 -240 -264 -356 -14 -58 -20 -71 -56 -113
-52 -61 -143 -125 -268 -187 -102 -51 -154 -70 -248 -92 -143 -33 -187 -56
-280 -150 -77 -78 -130 -151 -214 -290 -29 -49 -83 -134 -118 -188 -59 -89
-71 -101 -136 -138 -135 -77 -321 -208 -491 -344 -313 -252 -426 -333 -501
-359 -202 -70 -344 -161 -697 -444 -78 -63 -122 -133 -168 -268 -58 -172 -72
-350 -58 -735 l8 -226 -30 -73 c-16 -39 -29 -73 -29 -75 0 -2 23 -11 51 -20
28 -10 65 -30 82 -45 50 -42 68 -49 163 -56 106 -8 175 2 459 62 334 72 412
85 540 91 137 6 200 -4 405 -69 179 -57 300 -83 509 -113 101 -15 211 -35 246
-46 34 -10 104 -30 156 -43 52 -13 186 -61 299 -106 113 -45 250 -98 304 -117
171 -59 248 -108 426 -269 83 -75 244 -190 688 -492 123 -84 253 -176 290
-205 167 -132 289 -203 365 -213 30 -4 64 2 119 20 74 24 79 25 128 10 45 -13
55 -22 87 -72 70 -109 117 -135 271 -151 98 -11 156 -35 167 -71 14 -43 69
-76 156 -93 97 -19 250 -37 326 -37 46 0 59 -5 126 -53 160 -115 308 -149 872
-202 155 -14 197 -23 393 -80 167 -49 294 -25 410 78 64 57 72 61 152 82 48
13 104 17 215 16 259 -2 430 29 766 138 283 92 310 100 444 121 181 29 282 80
625 320 69 48 190 124 270 170 182 104 253 151 310 205 57 55 238 177 360 245
201 111 261 168 336 315 62 122 66 155 23 209 -18 23 -28 26 -79 26 -69 0
-152 -16 -195 -37 -16 -9 -69 -44 -116 -79 -143 -106 -186 -128 -326 -163 -70
-18 -211 -60 -312 -93 -258 -84 -354 -106 -536 -124 -81 -7 -117 -29 -171
-104 -37 -51 -100 -90 -146 -90 -14 0 -59 14 -99 31 -64 27 -84 31 -158 30
-46 -1 -138 -10 -203 -21 -337 -55 -681 -45 -1143 34 -371 63 -594 145 -878
323 -67 42 -137 82 -157 91 -43 18 -114 11 -169 -17 -22 -12 -46 -21 -53 -21
-7 0 -29 28 -48 63 -45 82 -103 160 -206 279 -71 82 -91 99 -127 108 -111 29
-163 59 -282 165 -117 103 -207 159 -349 215 -70 28 -185 79 -256 115 -260
130 -346 157 -543 170 -144 9 -236 35 -317 90 -85 59 -276 126 -467 165 -82
16 -276 46 -433 65 -458 56 -576 75 -740 116 -98 25 -178 39 -217 39 -36 0
-63 4 -63 10 0 18 53 92 124 175 37 44 81 103 97 131 25 43 43 59 112 99 45
26 119 77 165 112 104 81 199 137 277 163 48 16 73 33 120 81 93 94 237 216
385 326 196 145 311 270 409 444 38 68 301 335 486 494 72 61 222 183 335 270
470 365 758 632 898 831 114 163 201 231 397 312 55 22 139 59 186 81 l87 40
50 93 c92 171 184 278 415 480 89 78 214 190 277 248 169 156 313 272 478 387
154 106 473 301 652 398 317 172 399 242 480 410 22 44 50 121 62 170 22 86
23 108 23 447 l0 357 -31 38 c-78 98 -199 106 -584 38 -83 -15 -206 -29 -289
-32 -200 -9 -607 13 -841 44 -241 32 -378 35 -478 9 -63 -16 -98 -18 -245 -13
-174 5 -304 24 -472 67 -178 47 -372 67 -486 51z"/>
<path d="M12065 8539 c-357 -29 -553 -74 -933 -213 -245 -89 -383 -149 -587
-255 -317 -164 -536 -300 -716 -442 -146 -116 -477 -468 -613 -652 -172 -234
-322 -489 -439 -748 -259 -574 -295 -691 -284 -944 7 -163 22 -233 102 -471
82 -246 111 -356 125 -474 14 -117 34 -192 65 -239 13 -20 86 -90 162 -157
152 -132 205 -194 224 -261 9 -33 28 -60 77 -106 36 -34 95 -93 131 -130 167
-173 341 -257 625 -302 176 -27 296 -71 368 -134 18 -15 44 -34 58 -41 67 -36
308 -51 467 -29 43 6 173 33 288 59 116 27 287 63 380 81 145 26 183 30 260
24 82 -6 97 -4 159 19 94 36 174 77 262 137 121 81 294 145 294 108 0 -28 -49
-116 -125 -229 -111 -163 -137 -224 -143 -332 -4 -82 -3 -87 19 -99 13 -7 56
-14 95 -17 104 -7 162 15 332 125 79 51 150 93 158 93 14 0 44 -49 44 -74 0
-31 -1 -31 238 6 l73 11 47 61 c25 34 91 113 147 177 130 151 167 206 221 329
50 115 58 143 78 259 21 117 58 207 111 268 52 59 76 110 147 308 28 77 64
167 80 200 27 55 47 86 166 261 57 84 70 126 92 295 11 80 28 168 38 195 11
27 36 88 56 136 71 172 89 251 89 378 0 153 -20 236 -75 310 -56 73 -73 87
-135 105 -67 21 -276 23 -357 5 -33 -8 -125 -46 -206 -85 -257 -126 -291 -133
-725 -145 -410 -11 -559 -27 -722 -76 -58 -17 -92 -34 -117 -58 -33 -31 -36
-38 -36 -92 0 -38 6 -68 16 -82 25 -36 87 -61 191 -77 189 -29 208 -33 264
-54 82 -31 195 -114 230 -169 25 -40 29 -56 29 -116 0 -162 -75 -359 -200
-528 -34 -45 -82 -122 -107 -171 -76 -148 -171 -223 -338 -266 -78 -21 -145
-27 -570 -51 -99 -5 -245 -15 -325 -21 -159 -12 -331 -6 -425 15 -84 19 -233
76 -301 117 -79 47 -173 141 -218 219 -102 174 -147 438 -115 670 6 41 10 104
10 140 1 84 22 143 110 301 39 71 82 159 95 196 28 82 31 178 8 248 l-17 48
67 60 c91 81 139 152 244 363 112 224 175 332 250 426 138 174 286 288 537
412 191 96 327 145 584 212 110 29 227 69 311 105 181 77 212 84 530 124 304
39 442 44 528 19 125 -37 295 10 484 132 99 64 142 84 251 119 l97 31 70 103
c75 112 111 200 94 229 -6 9 -28 27 -50 39 -51 30 -115 29 -226 -1 -194 -54
-262 -61 -558 -59 -350 3 -544 20 -935 84 -295 48 -455 57 -680 38z"/>
</g>
</svg>
